{
    "asset" : {
        "generator" : "Khronos glTF Blender I/O v1.3.48",
        "version" : "2.0"
    },
    "scene" : 0,
    "scenes" : [
        {
            "name" : "Scene",
            "nodes" : [
                0
            ]
        }
    ],
    "nodes" : [
        {
            "mesh" : 0,
            "name" : "coin_new_design"
        }
    ],
    "materials" : [
        {
            "emissiveFactor" : [
                0,
                0,
                0
            ],
            "name" : "Default",
            "normalTexture" : {
                "index" : 0,
                "texCoord" : 0
            },
            "pbrMetallicRoughness" : {
                "baseColorTexture" : {
                    "index" : 1,
                    "texCoord" : 0
                },
                "metallicRoughnessTexture" : {
                    "index" : 2,
                    "texCoord" : 0
                }
            }
        }
    ],
    "meshes" : [
        {
            "name" : "coin_new_design",
            "primitives" : [
                {
                    "attributes" : {
                        "POSITION" : 0,
                        "NORMAL" : 1,
                        "TEXCOORD_0" : 2
                    },
                    "indices" : 3,
                    "material" : 0
                }
            ]
        }
    ],
    "textures" : [
        {
            "source" : 0
        },
        {
            "source" : 1
        },
        {
            "source" : 2
        }
    ],
    "images" : [
        {
            "bufferView" : 4,
            "mimeType" : "image/jpeg",
            "name" : "Image_1"
        },
        {
            "bufferView" : 5,
            "mimeType" : "image/jpeg",
            "name" : "Image_2"
        },
        {
            "bufferView" : 6,
            "mimeType" : "image/jpeg",
            "name" : "Image_0"
        }
    ],
    "accessors" : [
        {
            "bufferView" : 0,
            "componentType" : 5126,
            "count" : 751,
            "max" : [
                1.9786896705627441,
                1.9500000476837158,
                0.20390450954437256
            ],
            "min" : [
                -1.9213104248046875,
                -1.9500000476837158,
                -0.156095489859581
            ],
            "type" : "VEC3"
        },
        {
            "bufferView" : 1,
            "componentType" : 5126,
            "count" : 751,
            "type" : "VEC3"
        },
        {
            "bufferView" : 2,
            "componentType" : 5126,
            "count" : 751,
            "type" : "VEC2"
        },
        {
            "bufferView" : 3,
            "componentType" : 5123,
            "count" : 852,
            "type" : "SCALAR"
        }
    ],
    "bufferViews" : [
        {
            "buffer" : 0,
            "byteLength" : 9012,
            "byteOffset" : 0
        },
        {
            "buffer" : 0,
            "byteLength" : 9012,
            "byteOffset" : 9012
        },
        {
            "buffer" : 0,
            "byteLength" : 6008,
            "byteOffset" : 18024
        },
        {
            "buffer" : 0,
            "byteLength" : 1704,
            "byteOffset" : 24032
        },
        {
            "buffer" : 0,
            "byteLength" : 790867,
            "byteOffset" : 25736
        },
        {
            "buffer" : 0,
            "byteLength" : 108618,
            "byteOffset" : 816604
        },
        {
            "buffer" : 0,
            "byteLength" : 467125,
            "byteOffset" : 925224
        }
    ],
    "buffers" : [
        {
            "byteLength" : 1392352,
            "uri" : "data:application/octet-stream;base64,"
        }
    ]
}
